<svg xmlns="http://www.w3.org/2000/svg" viewBox="0 0 512 512" width="24" height="24" fill="#000">
  <path d="M487.4 315.7l-28.2-16.3c2.6-14.5 2.6-29.4 0-43.9l28.2-16.3c13.3-7.7 18.1-24.4 10.4-37.7l-22.9-39.6c-7.7-13.3-24.4-18.1-37.7-10.4l-28.2 16.3c-11.4-10.2-24.3-18.6-38.2-24.9V96c0-15.1-12.3-27.4-27.4-27.4h-45.8c-15.1 0-27.4 12.3-27.4 27.4v32.9c-13.9 6.3-26.8 14.7-38.2 24.9l-28.2-16.3c-13.3-7.7-30-2.9-37.7 10.4l-22.9 39.6c-7.7 13.3-2.9 30 10.4 37.7l28.2 16.3c-2.6 14.5-2.6 29.4 0 43.9l-28.2 16.3c-13.3 7.7-18.1 24.4-10.4 37.7l22.9 39.6c7.7 13.3 24.4 18.1 37.7 10.4l28.2-16.3c11.4 10.2 24.3 18.6 38.2 24.9V416c0 15.1 12.3 27.4 27.4 27.4h45.8c15.1 0 27.4-12.3 27.4-27.4v-32.9c13.9-6.3 26.8-14.7 38.2-24.9l28.2 16.3c13.3 7.7 30 2.9 37.7-10.4l22.9-39.6c7.7-13.3 2.9-30-10.4-37.7zM256 336c-44.2 0-80-35.8-80-80s35.8-80 80-80 80 35.8 80 80-35.8 80-80 80z"/>
</svg>
