<svg xmlns="http://www.w3.org/2000/svg" viewBox="0 0 512 512" width="24" height="24" fill="#000">
  <path d="M256 8C119 8 8 119 8 256s111 248 248 248 248-111 248-248S393 8 256 8zm0 48c110.5 0 200 89.5 200 200s-89.5 200-200 200S56 366.5 56 256 145.5 56 256 56zm0 48c-83.8 0-152 68.2-152 152s68.2 152 152 152 152-68.2 152-152-68.2-152-152-152zm0 48c57.4 0 104 46.6 104 104s-46.6 104-104 104-104-46.6-104-104 46.6-104 104-104zm0 48c-30.9 0-56 25.1-56 56s25.1 56 56 56 56-25.1 56-56-25.1-56-56-56z"/>
</svg>
